<svg xmlns="http://www.w3.org/2000/svg"><symbol id="ic-help" viewBox="0 0 26 26"><path stroke="#000" d="M13.448 14.436c.152-.344.483-.763.995-1.26l-1.452 1.058c-.146.33-.225.744-.256 1.223h-.422c.031-.484.109-.868.222-1.16.144-.37.481-.844 1.075-1.427l.636-.628c.22-.208.402-.431.543-.669.255-.417.392-.864.392-1.337 0-.629-.19-1.195-.579-1.673-.443-.547-1.136-.761-1.934-.762-1.032 0-1.845.4-2.29 1.261-.184.356-.296.803-.35 1.32h-.432c.08-.808.361-1.443.818-1.936.538-.579 1.287-.89 2.31-.89.95 0 1.658.267 2.178.761.524.498.79 1.13.79 1.935 0 .5-.102.853-.265 1.1-.198.301-.63.785-1.332 1.466-.524.508-.913.981-1.104 1.416l.457.202zm0 0c-.151.343-.228.85-.228 1.521l.228-1.521zm-1.183 4.008v-.661h.59v.661h-.59z"/><path stroke="#000" stroke-width=".5" d="M25 13c0-6.627-5.373-12-12-12S1 6.373 1 13s5.373 12 12 12 12-5.373 12-12zM2.09 13C2.09 6.975 6.976 2.09 13 2.09S23.91 6.976 23.91 13 19.024 23.91 13 23.91 2.09 19.024 2.09 13z"/></symbol><symbol id="ic-dashboard" viewBox="0 0 24 20"><path d="M24 12.243c0 2.688-.838 5.238-2.423 7.377a.925.925 0 0 1-1.313.186.97.97 0 0 1-.183-1.34 10.373 10.373 0 0 0 2.044-6.223c0-5.712-4.532-10.33-10.125-10.33-5.597 0-10.125 4.622-10.125 10.33 0 2.267.707 4.419 2.043 6.223a.97.97 0 0 1-.182 1.34.925.925 0 0 1-1.313-.186A12.3 12.3 0 0 1 0 12.243C0 5.473 5.37 0 12 0c6.633 0 12 5.477 12 12.243zM17.94 6.48a.97.97 0 0 1 0 1.353l-3.056 3.12c.252.473.395 1.015.395 1.59 0 1.846-1.471 3.347-3.279 3.347-1.808 0-3.279-1.501-3.279-3.347 0-1.845 1.47-3.347 3.279-3.347a3.2 3.2 0 0 1 1.558.403l3.056-3.12a.924.924 0 0 1 1.326.001zm-4.536 6.063c0-.79-.63-1.433-1.404-1.433-.774 0-1.404.643-1.404 1.433s.63 1.434 1.404 1.434c.774 0 1.404-.643 1.404-1.434z"/></symbol><symbol id="ic-administration" viewBox="0 0 25 22"><path d="M5.812 13.242a6.503 6.503 0 0 0 4.456 6.944v1.562a8.003 8.003 0 0 1-5.848-9.31l1.392.804zM17.089 9.64a6.483 6.483 0 0 0-4.82-2.14c-1.89 0-3.59.806-4.778 2.093l-1.326-.766A7.983 7.983 0 0 1 12.268 6a7.983 7.983 0 0 1 6.144 2.876l-1.323.764zm-2.821 10.546a6.503 6.503 0 0 0 4.464-6.876l1.396-.807a8.003 8.003 0 0 1-5.86 9.245v-1.561zm0-18.186a2 2 0 1 1-4 0 2 2 0 0 1 4 0zM1 18a2 2 0 1 1 2 3.464A2 2 0 0 1 1 18zm20.66 3.464a2 2 0 1 1 2-3.464 2 2 0 0 1-2 3.464zm-7.684-3.02a.485.485 0 0 1-.116-.014c-.168-.042-.348-.336-.348-.336s-.86-2.355-1.198-2.355c-.339 0-1.198 2.355-1.198 2.355s-.18.294-.349.336c-.167.042-.463-.134-.463-.134s-.57-1.822-.564-1.955c0-.326.07-.747.211-1.236a.633.633 0 0 0-.097-.543 3.22 3.22 0 0 1-.586-1.877v-.297C9.268 11.29 10.413 11 11.02 11c.594 0 1.034.285 1.295.519.261-.234.7-.519 1.294-.519.606 0 1.751.29 1.751 1.389v.296a3.22 3.22 0 0 1-.585 1.877.633.633 0 0 0-.097.543c.14.49.211.91.211 1.25.006.12-.564 1.941-.564 1.941s-.218.148-.348.148z"/></symbol><symbol id="ic-credential" viewBox="0 0 18 24"><path fill="#0C0C0D" fill-rule="evenodd" d="M14 1.5H1.5v21h15V4A2.5 2.5 0 0 0 14 1.5zM0 0v24h18V4a4 4 0 0 0-4-4H0z" clip-rule="evenodd"/><path fill="#0C0C0D" stroke="#0C0C0D" stroke-width=".5" d="M4.239 13.39c.182.1.421.101.605.004l1.478-.783.972 1.191c.166.203.504.258.756.125a.45.45 0 0 0 .233-.278L9 10.853l.716 2.796c.06.238.349.39.644.342a.564.564 0 0 0 .346-.189l.972-1.191 1.477.783c.251.133.59.077.755-.126a.371.371 0 0 0 .079-.33L12.765 8.16c1.126-1.717.313-3.844-1.817-4.752-2.13-.908-4.77-.253-5.896 1.464-.72 1.097-.669 2.418.133 3.477l-1.174 4.588c-.044.174.045.352.228.452zm7.582-1.756c-.252-.133-.59-.077-.755.126l-.545.672-.636-2.483a4.757 4.757 0 0 0 2.005-.864l.767 2.991-.836-.442zM8.908 3.886c1.806 0 3.271 1.181 3.271 2.638 0 1.456-1.465 2.637-3.271 2.637-1.807 0-3.272-1.18-3.272-2.637.002-1.456 1.465-2.636 3.272-2.638zM6.083 9.2a4.85 4.85 0 0 0 2.027.78l-.628 2.453-.548-.672c-.166-.201-.502-.258-.753-.126l-.833.44.735-2.875z"/><path d="M3.81 15.953h10.4v.8H3.81v-.8z"/><path fill="#0C0C0D" fill-rule="evenodd" d="M3.56 15.703h10.9v1.3H3.56v-1.3zm.5.5v.3h9.9v-.3h-9.9z" clip-rule="evenodd"/><path d="M3.81 19.153h10.4v.8H3.81v-.8z"/><path fill="#0C0C0D" fill-rule="evenodd" d="M3.56 18.903h10.9v1.3H3.56v-1.3zm.5.5v.3h9.9v-.3h-9.9z" clip-rule="evenodd"/></symbol><symbol id="ic-era" viewBox="0 0 16 20"><path fill-rule="evenodd" d="M12 18.5H1.5v-17h13V16a2.5 2.5 0 0 1-2.5 2.5zM0 20V0h16v16a4 4 0 0 1-4 4H0z" clip-rule="evenodd"/><path fill-rule="evenodd" d="M8 15a1 1 0 1 1 0-2 1 1 0 0 1 0 2zm3-1a3 3 0 1 0-6 0 3 3 0 0 0 6 0zM4 3.5v3h2v-3H4zm3 0v3h2v-3H7zm3 0v3h2v-3h-2z" clip-rule="evenodd"/></symbol><symbol id="ic-location" viewBox="0 0 24 24"><path stroke="#0C0C0D" stroke-width="1.5" d="M12 17.596l-.408.346.407-.346zm0 0l.406.345-.407-.345zm10 1.215h.75c0 .783-.497 1.398-1.084 1.84-.6.453-1.42.828-2.367 1.13-1.901.606-4.482.969-7.299.969s-5.397-.363-7.299-.97c-.946-.302-1.767-.677-2.367-1.129-.587-.443-1.084-1.057-1.084-1.84 0-.636.332-1.164.762-1.57.429-.403 1.014-.743 1.683-1.028 1.342-.572 3.182-.988 5.263-1.194l.183-.018a35.8 35.8 0 0 1-.394-.606c-.668-1.052-1.346-2.251-1.859-3.467-.509-1.206-.877-2.478-.877-3.663 0-3.319 2.677-6.015 5.988-6.015 3.312 0 5.99 2.696 5.99 6.015 0 1.18-.37 2.45-.878 3.655-.513 1.213-1.19 2.414-1.859 3.467-.133.21-.266.415-.398.613l4.417 3.404c-.967-.389-2.516-.784-4.581-.977-.103.138-.202.268-.295.39l-.595-.458.045-.749c.167.01.33.022.492.034.198-.27.408-.564.624-.88 4.078.403 7.04 1.615 7.039 3.047zm0 0C22 20.573 17.523 22 12 22c-5.522 0-10-1.428-10-3.19 0-1.43 2.959-2.641 7.032-3.044L22 18.81zm-10.514-.779l-.058.05.572.674.572-.675-.058-.049.058.049.001-.002.004-.004.012-.015.019-.022 1.147.07c1.612.097 2.934.32 3.94.578.163.042.315.084.458.126-.295.087-.628.174-1 .255-1.305.287-3.036.502-5.153.502-2.116 0-3.847-.215-5.152-.502a14.316 14.316 0 0 1-1-.255c.142-.042.294-.084.455-.126 1.006-.258 2.327-.48 3.938-.578l1.15-.07.02.023.012.015.003.004.001.001.059-.049z"/></symbol><symbol id="ic-help" viewBox="0 0 26 26"><path stroke="#000" d="M13.448 14.436c.152-.344.483-.763.995-1.26l-1.452 1.058c-.146.33-.225.744-.256 1.223h-.422c.031-.484.109-.868.222-1.16.144-.37.481-.844 1.075-1.427l.636-.628c.22-.208.402-.431.543-.669.255-.417.392-.864.392-1.337 0-.629-.19-1.195-.579-1.673-.443-.547-1.136-.761-1.934-.762-1.032 0-1.845.4-2.29 1.261-.184.356-.296.803-.35 1.32h-.432c.08-.808.361-1.443.818-1.936.538-.579 1.287-.89 2.31-.89.95 0 1.658.267 2.178.761.524.498.79 1.13.79 1.935 0 .5-.102.853-.265 1.1-.198.301-.63.785-1.332 1.466-.524.508-.913.981-1.104 1.416l.457.202zm0 0c-.151.343-.228.85-.228 1.521l.228-1.521zm-1.183 4.008v-.661h.59v.661h-.59z"/><path stroke="#000" stroke-width=".5" d="M25 13c0-6.627-5.373-12-12-12S1 6.373 1 13s5.373 12 12 12 12-5.373 12-12zM2.09 13C2.09 6.975 6.976 2.09 13 2.09S23.91 6.976 23.91 13 19.024 23.91 13 23.91 2.09 19.024 2.09 13z"/></symbol><symbol id="ic-dashboard" viewBox="0 0 24 20"><path d="M24 12.243c0 2.688-.838 5.238-2.423 7.377a.925.925 0 0 1-1.313.186.97.97 0 0 1-.183-1.34 10.373 10.373 0 0 0 2.044-6.223c0-5.712-4.532-10.33-10.125-10.33-5.597 0-10.125 4.622-10.125 10.33 0 2.267.707 4.419 2.043 6.223a.97.97 0 0 1-.182 1.34.925.925 0 0 1-1.313-.186A12.3 12.3 0 0 1 0 12.243C0 5.473 5.37 0 12 0c6.633 0 12 5.477 12 12.243zM17.94 6.48a.97.97 0 0 1 0 1.353l-3.056 3.12c.252.473.395 1.015.395 1.59 0 1.846-1.471 3.347-3.279 3.347-1.808 0-3.279-1.501-3.279-3.347 0-1.845 1.47-3.347 3.279-3.347a3.2 3.2 0 0 1 1.558.403l3.056-3.12a.924.924 0 0 1 1.326.001zm-4.536 6.063c0-.79-.63-1.433-1.404-1.433-.774 0-1.404.643-1.404 1.433s.63 1.434 1.404 1.434c.774 0 1.404-.643 1.404-1.434z"/></symbol><symbol id="ic-administration" viewBox="0 0 25 22"><path d="M5.812 13.242a6.503 6.503 0 0 0 4.456 6.944v1.562a8.003 8.003 0 0 1-5.848-9.31l1.392.804zM17.089 9.64a6.483 6.483 0 0 0-4.82-2.14c-1.89 0-3.59.806-4.778 2.093l-1.326-.766A7.983 7.983 0 0 1 12.268 6a7.983 7.983 0 0 1 6.144 2.876l-1.323.764zm-2.821 10.546a6.503 6.503 0 0 0 4.464-6.876l1.396-.807a8.003 8.003 0 0 1-5.86 9.245v-1.561zm0-18.186a2 2 0 1 1-4 0 2 2 0 0 1 4 0zM1 18a2 2 0 1 1 2 3.464A2 2 0 0 1 1 18zm20.66 3.464a2 2 0 1 1 2-3.464 2 2 0 0 1-2 3.464zm-7.684-3.02a.485.485 0 0 1-.116-.014c-.168-.042-.348-.336-.348-.336s-.86-2.355-1.198-2.355c-.339 0-1.198 2.355-1.198 2.355s-.18.294-.349.336c-.167.042-.463-.134-.463-.134s-.57-1.822-.564-1.955c0-.326.07-.747.211-1.236a.633.633 0 0 0-.097-.543 3.22 3.22 0 0 1-.586-1.877v-.297C9.268 11.29 10.413 11 11.02 11c.594 0 1.034.285 1.295.519.261-.234.7-.519 1.294-.519.606 0 1.751.29 1.751 1.389v.296a3.22 3.22 0 0 1-.585 1.877.633.633 0 0 0-.097.543c.14.49.211.91.211 1.25.006.12-.564 1.941-.564 1.941s-.218.148-.348.148z"/></symbol><symbol id="ic-credential" viewBox="0 0 18 24"><path fill="#0C0C0D" fill-rule="evenodd" d="M14 1.5H1.5v21h15V4A2.5 2.5 0 0 0 14 1.5zM0 0v24h18V4a4 4 0 0 0-4-4H0z" clip-rule="evenodd"/><path fill="#0C0C0D" stroke="#0C0C0D" stroke-width=".5" d="M4.239 13.39c.182.1.421.101.605.004l1.478-.783.972 1.191c.166.203.504.258.756.125a.45.45 0 0 0 .233-.278L9 10.853l.716 2.796c.06.238.349.39.644.342a.564.564 0 0 0 .346-.189l.972-1.191 1.477.783c.251.133.59.077.755-.126a.371.371 0 0 0 .079-.33L12.765 8.16c1.126-1.717.313-3.844-1.817-4.752-2.13-.908-4.77-.253-5.896 1.464-.72 1.097-.669 2.418.133 3.477l-1.174 4.588c-.044.174.045.352.228.452zm7.582-1.756c-.252-.133-.59-.077-.755.126l-.545.672-.636-2.483a4.757 4.757 0 0 0 2.005-.864l.767 2.991-.836-.442zM8.908 3.886c1.806 0 3.271 1.181 3.271 2.638 0 1.456-1.465 2.637-3.271 2.637-1.807 0-3.272-1.18-3.272-2.637.002-1.456 1.465-2.636 3.272-2.638zM6.083 9.2a4.85 4.85 0 0 0 2.027.78l-.628 2.453-.548-.672c-.166-.201-.502-.258-.753-.126l-.833.44.735-2.875z"/><path d="M3.81 15.953h10.4v.8H3.81v-.8z"/><path fill="#0C0C0D" fill-rule="evenodd" d="M3.56 15.703h10.9v1.3H3.56v-1.3zm.5.5v.3h9.9v-.3h-9.9z" clip-rule="evenodd"/><path d="M3.81 19.153h10.4v.8H3.81v-.8z"/><path fill="#0C0C0D" fill-rule="evenodd" d="M3.56 18.903h10.9v1.3H3.56v-1.3zm.5.5v.3h9.9v-.3h-9.9z" clip-rule="evenodd"/></symbol><symbol id="ic-era" viewBox="0 0 16 20"><path fill-rule="evenodd" d="M12 18.5H1.5v-17h13V16a2.5 2.5 0 0 1-2.5 2.5zM0 20V0h16v16a4 4 0 0 1-4 4H0z" clip-rule="evenodd"/><path fill-rule="evenodd" d="M8 15a1 1 0 1 1 0-2 1 1 0 0 1 0 2zm3-1a3 3 0 1 0-6 0 3 3 0 0 0 6 0zM4 3.5v3h2v-3H4zm3 0v3h2v-3H7zm3 0v3h2v-3h-2z" clip-rule="evenodd"/></symbol><symbol id="ic-eft" viewBox="0 0 16 20"><path fill-rule="evenodd" d="M4 18.5h10.5v-17h-13V16A2.5 2.5 0 0 0 4 18.5zM16 20V0H0v16a4 4 0 0 0 4 4h12z" clip-rule="evenodd"/><path fill-rule="evenodd" d="M8 15a1 1 0 1 0 0-2 1 1 0 0 0 0 2zm-3-1a3 3 0 1 1 6 0 3 3 0 0 1-6 0zm5.5-10.5v3h-2v-3h2zm-3 0v6h-2v-6h2z" clip-rule="evenodd"/></symbol><symbol id="ic-location" viewBox="0 0 20 20"><path fill="#0C0C0D" d="M15.239 5.265C15.239 2.357 12.893 0 9.998 0 7.106 0 4.761 2.357 4.761 5.265c0 4.166 5.238 10.331 5.238 10.331s5.24-6.186 5.24-10.331zM7.415 4.95A2.59 2.59 0 0 1 10 2.354a2.59 2.59 0 0 1 2.584 2.597A2.59 2.59 0 0 1 10 7.547a2.59 2.59 0 0 1-2.584-2.596z"/><path fill="#0C0C0D" d="M10 6.227c.701 0 1.27-.571 1.27-1.277 0-.705-.569-1.276-1.27-1.276-.702 0-1.271.571-1.271 1.276 0 .706.569 1.277 1.27 1.277zm2.961 7.538a38.51 38.51 0 0 1-1.16 1.594c3.31.2 5.48.918 6.286 1.452-.945.627-3.755 1.508-8.087 1.508-4.331 0-7.141-.881-8.087-1.508.807-.534 2.975-1.252 6.282-1.452a36.85 36.85 0 0 1-1.163-1.594C2.96 14.168 0 15.38 0 16.811 0 18.57 4.478 20 10 20c5.523 0 10-1.427 10-3.19 0-1.431-2.961-2.643-7.039-3.045z"/></symbol></svg>