<svg width="496" height="351" viewBox="0 0 496 351" fill="none" xmlns="http://www.w3.org/2000/svg">
<path d="M161.648 11.5507C161.648 11.5507 160.489 12.8811 162.476 15.4554C164.462 18.0296 162.858 23.6155 159.083 23.7578C155.309 23.9001 153.478 25.4829 154.388 27.568C155.298 29.653 156.392 34.6073 152.281 33.854C148.17 33.1007 146.871 34.7392 147.599 35.9985C148.326 37.2578 145.766 33.4941 145.766 33.4941C145.766 33.4941 143.475 36.9109 140.663 34.5191C137.852 32.1273 136.734 10.4463 142.466 10.0788C148.198 9.71133 161.648 11.5507 161.648 11.5507Z" fill="#2F2E41"/>
<path d="M132.59 114.656L131.284 123.81H125.406L127.365 113.348L132.59 114.656Z" fill="#9F616A"/>
<path d="M124.753 118.252C124.753 118.252 116.916 125.444 118.875 126.098C120.834 126.752 128.018 134.599 129.325 135.252C130.493 135.837 143.04 139.83 141.08 135.252C139.121 130.675 134.549 128.06 134.549 128.06L133.243 120.214L124.753 118.252Z" fill="#F2F2F2"/>
<path opacity="0.1" d="M124.753 118.252C124.753 118.252 116.916 125.444 118.875 126.098C120.834 126.752 128.018 134.599 129.325 135.252C130.493 135.837 143.04 139.83 141.08 135.252C139.121 130.675 134.549 128.06 134.549 128.06L133.243 120.214L124.753 118.252Z" fill="black"/>
<path d="M124.753 107.79L123.446 116.944H117.569L119.528 106.482L124.753 107.79Z" fill="#9F616A"/>
<path d="M149.314 83.4904L140.754 55.1538C140.754 55.1538 155.122 42.0765 145.325 38.1533C135.529 34.2301 132.916 53.8461 132.916 53.8461L136.182 87.8471H149.244L149.314 83.4904Z" fill="#FFB8B8"/>
<path d="M129.325 62.6733C129.325 62.6733 146.204 84.3484 143.642 87.5689C141.08 90.7895 136.509 110.406 136.509 110.406C136.509 110.406 137.162 118.252 134.549 118.252C131.937 118.252 125.406 116.944 125.406 114.983C125.406 113.021 131.284 88.1741 131.284 88.1741L114.303 65.9426L129.325 62.6733Z" fill="#DA006D"/>
<path d="M128.018 63.981L111.038 54.8269C111.038 54.8269 99.2817 60.7117 102.547 65.9426C105.813 71.1736 120.834 84.9047 120.834 84.9047C120.834 84.9047 116.262 107.136 116.915 107.79C117.569 108.444 124.753 111.059 126.712 110.406C128.671 109.752 139.121 84.2509 136.509 82.9431C133.896 81.6354 125.406 67.9042 125.406 67.9042L128.018 63.981Z" fill="#DA006D"/>
<path d="M174.389 303.95C174.389 303.95 162.633 311.142 161.327 311.142C160.02 311.142 142.387 315.72 150.224 318.989C158.061 322.258 188.104 317.681 187.451 315.72C186.797 313.758 187.451 301.988 186.144 301.988C184.838 301.988 174.389 303.95 174.389 303.95Z" fill="#2F2E41"/>
<path d="M161.326 313.104C161.326 313.104 149.571 320.297 148.264 320.297C146.958 320.297 129.324 324.874 137.162 328.143C144.999 331.412 175.042 326.835 174.389 324.874C173.735 322.912 174.389 311.142 173.082 311.142C171.776 311.142 161.326 313.104 161.326 313.104Z" fill="#2F2E41"/>
<path d="M173.736 174.484C173.736 174.484 171.776 184.292 168.511 191.485C165.245 198.677 169.164 232.679 171.123 237.909C173.082 243.14 192.022 305.258 186.144 305.912C180.267 306.565 168.511 305.912 168.511 305.912L149.571 246.41L152.836 166.638L173.736 174.484Z" fill="#000050"/>
<path opacity="0.15" d="M173.736 174.484C173.736 174.484 171.776 184.292 168.511 191.485C165.245 198.677 169.164 232.679 171.123 237.909C173.082 243.14 192.022 305.258 186.144 305.912C180.267 306.565 168.511 305.912 168.511 305.912L149.571 246.41L152.836 166.638L173.736 174.484Z" fill="black"/>
<path d="M182.226 83.597C174.29 83.597 167.858 77.1566 167.858 69.212C167.858 61.2673 174.29 54.8269 182.226 54.8269C190.161 54.8269 196.594 61.2673 196.594 69.212C196.594 77.1566 190.161 83.597 182.226 83.597Z" fill="#FFB8B8"/>
<path d="M169.817 175.138C169.817 175.138 167.204 192.793 161.327 196.716C155.449 200.639 157.408 204.562 157.408 204.562L160.02 239.217C160.02 239.217 185.491 301.988 177.654 309.835C169.817 317.681 162.633 314.412 159.367 313.758C156.102 313.104 150.224 299.373 153.489 295.45C156.755 291.526 146.958 267.987 144.346 264.064C141.733 260.141 144.346 254.91 141.08 253.602C137.815 252.294 130.631 243.794 130.631 237.909C130.631 232.025 121.487 169.253 127.365 165.33C133.243 161.407 170.92 173.427 170.92 173.427L169.817 175.138Z" fill="#000050"/>
<path d="M149.571 28.6723C143.078 28.6723 137.815 23.4028 137.815 16.9027C137.815 10.4025 143.078 5.13306 149.571 5.13306C156.063 5.13306 161.327 10.4025 161.327 16.9027C161.327 23.4028 156.063 28.6723 149.571 28.6723Z" fill="#9F616A"/>
<path d="M172.429 69.212C172.429 69.212 164.592 83.597 160.673 83.597C156.755 83.597 176.348 98.636 176.348 98.636C176.348 98.636 182.879 79.6739 184.185 79.02C185.491 78.3661 172.429 69.212 172.429 69.212Z" fill="#FFB8B8"/>
<path d="M169.817 82.2892C169.817 82.2892 186.798 88.174 186.144 90.1356C185.491 92.0972 190.716 96.6743 190.716 98.6359C190.716 100.598 192.022 118.252 184.185 132.637C176.348 147.022 163.939 157.484 169.817 164.023C175.695 170.561 184.838 181.677 175.042 181.677C165.245 181.677 149.571 167.292 135.202 172.523C120.834 177.754 124.1 158.138 124.1 158.138C124.1 158.138 122.14 143.099 126.059 138.522C129.978 133.945 143.693 101.251 143.693 97.3282C143.693 93.405 156.755 78.3661 160.02 78.3661C163.286 78.3661 169.817 82.2892 169.817 82.2892Z" fill="#8985A8"/>
<path d="M146.305 24.0952C146.305 24.0952 140.987 34.2186 140.707 36.0225C140.427 37.8264 131.284 24.0952 131.284 24.0952L141.733 16.9026L146.305 24.0952Z" fill="#9F616A"/>
<path d="M144.346 31.9416L133.243 20.172L120.181 26.0568C120.181 26.0568 107.999 52.8653 107.232 54.8269C106.466 56.7885 126.712 65.9426 128.671 65.9426C130.631 65.9426 144.346 45.6727 144.346 45.6727C144.346 45.6727 147.611 35.8648 144.346 31.9416Z" fill="#F2F2F2"/>
<path d="M149.571 47.6343V59.4042H141.733L144.311 47.6343H149.571Z" fill="#9F616A"/>
<path d="M145.099 56.4616C146.089 56.4482 147.06 56.7373 147.882 57.2905C148.704 57.8437 149.338 58.6346 149.7 59.5578C150.21 60.9402 150.037 62.3931 147.611 63.0002C142.387 64.308 141.733 63.0002 141.733 63.0002C141.733 63.0002 132.663 61.6925 134.586 59.077C136.509 56.4616 141.733 56.4616 141.733 56.4616H145.099Z" fill="#9F616A"/>
<path d="M116.916 113.021C116.916 113.021 109.078 120.214 111.038 120.867C112.997 121.521 120.181 129.368 121.487 130.022C122.656 130.606 135.202 134.599 133.243 130.022C131.284 125.444 126.712 122.829 126.712 122.829L125.406 114.983L116.916 113.021Z" fill="#F2F2F2"/>
<path d="M187.345 58.139C186.446 57.6116 185.385 56.9548 185.359 55.912C185.382 55.5289 185.517 55.1609 185.746 54.8533C185.976 54.5457 186.29 54.3118 186.65 54.1804C187.375 53.93 188.142 53.8265 188.907 53.8759C189.201 53.8609 189.495 53.8901 189.78 53.9625C190.524 54.1922 190.952 54.9484 191.538 55.4616C192.389 56.2068 193.561 56.426 194.655 56.71C196.489 57.1862 198.247 57.9157 199.879 58.8775C200.202 59.0407 200.484 59.2732 200.706 59.5585C200.963 60.0838 201.077 60.6674 201.038 61.251C201.186 63.4694 202.514 65.4005 203.506 67.3899C204.498 69.3792 205.149 71.8574 203.985 73.7509C203.523 74.3401 203.092 74.9528 202.694 75.5867C201.869 77.3078 202.898 79.427 202.302 81.2404C202.035 81.9542 201.607 82.5966 201.052 83.1175C199.905 84.2739 198.492 85.1305 196.936 85.612C195.452 86.0695 193.611 86.3744 193.03 87.8161C192.78 88.4346 192.831 89.1632 192.479 89.7296C192.044 90.4312 191.145 90.6579 190.334 90.8075C189.423 91.016 188.485 91.084 187.554 91.0089C187.088 90.9686 186.635 90.8339 186.223 90.613C185.811 90.392 185.448 90.0895 185.156 89.7238C184.892 89.2077 184.566 88.7261 184.185 88.2902C183.239 87.499 181.803 88.124 180.588 87.9143C180.096 87.8214 179.641 87.5897 179.276 87.2466C178.911 86.9035 178.651 86.4632 178.527 85.9774C178.494 85.4599 178.351 84.9553 178.109 84.4971C177.354 83.5308 175.37 84.213 174.872 83.0925C174.548 82.3645 175.225 81.5953 175.88 81.142C176.947 80.4028 178.14 79.8343 179.098 78.9569C180.055 78.0796 180.763 76.7669 180.463 75.5027C180.014 73.6068 177.542 72.5629 177.46 70.6161C177.413 69.5009 178.213 68.5221 179.109 67.858C180.006 67.1939 181.044 66.7168 181.845 65.9404C182.431 65.3729 182.872 64.6607 183.509 64.1511C184.66 63.2297 186.235 63.1179 187.701 62.9672C188.488 62.8864 191.625 62.5227 191.501 61.3234C191.399 60.3273 188.143 58.6073 187.345 58.139Z" fill="#2F2E41"/>
<path d="M144.346 31.2877C144.346 31.2877 151.53 33.9032 151.53 37.1725C151.53 40.4418 154.796 50.9037 151.53 50.9037C148.264 50.9037 141.733 48.3938 141.733 48.3938L144.346 31.2877Z" fill="#F2F2F2"/>
<path d="M146.305 78.3661C146.305 78.3661 127.365 71.8274 126.712 71.8274C126.059 71.8274 116.916 66.5965 117.569 64.6349L120.181 48.2882C120.181 48.2882 130.631 26.7106 123.447 26.7106C116.262 26.7106 112.344 43.7111 112.344 43.7111C112.344 43.7111 96.6694 73.1351 105.16 79.6738C113.65 86.2125 148.918 97.982 150.877 96.0204C152.836 94.0588 146.305 78.3661 146.305 78.3661Z" fill="#FFB8B8"/>
<path d="M128.018 35.8648L123.61 40.118L129.325 45.6728C129.325 45.6728 137.162 42.4034 136.509 44.365C135.856 46.3266 131.937 52.2114 129.325 52.2114C126.712 52.2114 113.116 43.7112 113.056 41.0957C112.997 38.4802 121.487 29.3261 123.447 28.6722C125.406 28.0183 128.018 35.8648 128.018 35.8648Z" fill="#9F616A"/>
<path d="M136.308 31.307C136.308 31.307 126.712 39.788 125.406 39.788C124.1 39.788 121.724 27.0455 121.724 27.0455C121.724 27.0455 129.466 21.9951 132.334 23.3721C135.202 24.749 136.308 31.307 136.308 31.307Z" fill="#F2F2F2"/>
<path d="M169.817 86.2125C169.817 86.2125 169.817 77.0583 150.224 77.0583H141.733L145.652 98.6359L158.714 102.559L169.817 86.2125Z" fill="#8985A8"/>
<path d="M127.018 12.1324C128.938 12.1232 130.857 12.0048 132.763 11.7777C134.261 8.15464 136.168 5.11458 138.231 3.98116C139.696 2.66938 141.954 1.71608 143.726 0.962361C148.078 -0.88852 155.322 0.265921 155.745 2.37092C164.308 6.46725 162.144 13.6611 162.144 13.6611C160.814 16.4768 157.829 15.2289 155.297 13.9538C154.65 15.9949 153.123 17.7271 150.936 17.8096C146.754 17.9672 144.726 19.7206 145.735 22.0304C146.743 24.3402 147.954 29.8286 143.4 28.9941C138.846 28.1596 137.407 29.9747 138.213 31.3698C139.019 32.7648 136.182 28.5954 136.182 28.5954C136.182 28.5954 133.645 32.3805 130.53 29.7309C130.215 29.4271 129.99 29.0419 129.881 28.618C128.433 29.2421 127.285 29.479 126.634 29.1872C122.903 27.516 125.22 23.5916 125.22 23.5916C125.22 23.5916 120.24 22.8267 121.844 22.9535C123.449 23.0803 124.465 20.9976 121.749 17.2436C119.033 13.4897 124.502 12.2176 127.018 12.1324Z" fill="#2F2E41"/>
<path d="M152.285 9.18953L154.144 8.57013L156 14.1538L154.141 14.7732L152.285 9.18953Z" fill="#DA006D"/>
<path d="M373.543 59.1826C373.543 59.1826 374.322 61.7841 369.905 64.1255C365.487 66.4669 364.188 75.3122 369.385 77.9137C374.582 80.5153 376.141 83.8973 373.543 86.2387C370.944 88.5801 366.267 94.8238 372.503 96.3847C378.74 97.9456 379.519 101.067 377.7 102.368C375.881 103.669 381.858 100.027 381.858 100.027C381.858 100.027 382.897 106.271 388.354 104.71C393.811 103.149 409.142 73.4911 401.347 69.3286C393.551 65.1661 373.543 59.1826 373.543 59.1826Z" fill="#2F2E41"/>
<path d="M393.677 279.736L391.987 295.523L399.308 300.033L406.066 298.905L402.687 279.736H393.677Z" fill="#9F616A"/>
<path d="M388.045 90.302C379.337 90.302 372.278 83.2343 372.278 74.5158C372.278 65.7973 379.337 58.7296 388.045 58.7296C396.754 58.7296 403.813 65.7973 403.813 74.5158C403.813 83.2343 396.754 90.302 388.045 90.302Z" fill="#9F616A"/>
<path d="M382.696 82.127C382.696 82.127 381.288 106.088 379.598 106.088C377.909 106.088 399.308 104.961 399.308 104.961C399.308 104.961 390.298 89.1744 394.803 84.1003C399.308 79.0261 382.696 82.127 382.696 82.127Z" fill="#9F616A"/>
<path d="M406.066 208.699L398.745 236.888L404.377 284.811L391.424 283.683L386.356 208.699H406.066Z" fill="#2F2E41"/>
<path opacity="0.2" d="M406.066 208.699L398.745 236.888L404.377 284.811L391.424 283.683L386.356 208.699H406.066Z" fill="black"/>
<path d="M394.803 292.704C394.803 292.704 394.24 289.321 388.609 292.704C382.977 296.087 359.326 306.799 371.715 309.054C384.104 311.309 409.445 306.235 409.445 304.543C409.445 302.852 410.008 292.14 407.755 293.268C405.503 294.395 398.182 301.724 394.803 292.704Z" fill="#006DDA"/>
<path d="M402.124 288.757C402.124 288.757 411.134 302.852 411.697 306.799C412.26 310.745 420.707 297.778 420.707 297.778L412.823 283.119L402.124 288.757Z" fill="#9F616A"/>
<path d="M372.278 210.954L382.414 244.781C382.414 244.781 400.434 292.704 401.561 292.14C402.687 291.576 416.202 288.193 416.765 286.502C417.329 284.811 399.871 239.143 399.871 239.143L397.619 209.826L372.278 210.954Z" fill="#2F2E41"/>
<path d="M422.397 295.523C420.859 295.417 419.327 295.794 418.014 296.603C416.702 297.412 415.674 298.611 415.076 300.033C412.823 305.107 410.008 305.671 409.445 306.235C408.881 306.799 411.134 318.638 409.445 319.766C407.755 320.893 406.066 332.733 411.697 332.733C417.328 332.733 426.339 326.531 425.776 325.404C425.212 324.276 425.212 316.383 426.902 313C428.591 309.618 431.407 303.98 426.902 300.597C422.397 297.214 422.397 295.523 422.397 295.523Z" fill="#006DDA"/>
<path d="M368.899 158.521L367.773 168.669C367.773 168.669 359.326 177.126 356.51 187.274C353.694 197.423 330.606 214.336 337.363 216.592C344.121 218.847 352.005 219.974 371.715 216.592C391.424 213.209 422.397 220.538 422.397 201.933C422.397 201.933 426.339 196.859 429.154 204.188C431.138 209.194 433.394 214.088 435.912 218.847C435.912 218.847 442.67 207.007 440.417 201.933C438.165 196.859 440.417 197.423 437.601 191.785C434.786 186.147 420.707 165.286 415.076 164.159C409.445 163.031 398.745 148.373 399.308 146.681C399.871 144.99 368.899 158.521 368.899 158.521Z" fill="#DA006D"/>
<path d="M399.308 95.3761C399.308 95.3761 376.22 100.45 375.093 103.833C374.46 105.736 371.51 109.244 369.05 111.95C364.897 116.449 362.137 122.058 361.102 128.096C360.515 131.693 362.984 134.927 364.112 139.07C367.491 151.474 370.025 148.373 366.646 157.393C363.268 166.414 383.54 169.797 391.424 165.85C399.308 161.904 408.037 138.506 408.037 135.687C408.037 132.868 415.639 101.014 409.445 98.7589C403.25 96.5037 399.308 95.3761 399.308 95.3761Z" fill="#006DDA"/>
<path d="M367.209 122.438L360.452 152.319L338.208 162.186C338.208 162.186 321.314 158.239 320.751 164.441C320.383 168.49 339.897 170.079 339.897 170.079L372.278 157.393L379.598 129.768L367.209 122.438Z" fill="#9F616A"/>
<path d="M375.093 111.162C375.093 111.162 361.015 119.619 364.394 124.13C367.773 128.64 376.22 135.969 378.472 135.969C380.725 135.969 382.414 122.438 382.414 118.492C382.414 114.545 375.093 111.162 375.093 111.162Z" fill="#006DDA"/>
<path d="M389.18 54.0166C389.18 54.0166 390.044 56.8986 385.15 59.4924C380.256 62.0862 378.817 71.885 384.574 74.7669C390.331 77.6489 392.059 81.3955 389.18 83.9893C386.301 86.5831 381.12 93.4999 388.028 95.2291C394.937 96.9583 395.801 100.417 393.786 101.858C391.771 103.299 398.392 99.2639 398.392 99.2639C398.392 99.2639 399.543 106.181 405.588 104.451C411.633 102.722 417.665 71.2895 410.926 63.1938C404.66 55.6662 389.18 54.0166 389.18 54.0166Z" fill="#2F2E41"/>
<path d="M387.341 51.0501C387.342 46.8279 399.96 49.8617 405.369 55.757C409.115 59.8393 414.805 65.9811 410.037 70.3105C405.269 74.6398 418.21 80.3151 421.68 82.0358C425.151 83.7565 432.003 89.0185 425.816 92.5485C419.629 96.0786 419.729 99.642 422.057 100.486C424.386 101.329 416.923 99.2312 416.923 99.2312C416.923 99.2312 417.677 106.203 411.39 106.169C405.104 106.136 387.067 71.5444 391.376 61.9295C395.382 52.9893 387.341 51.0501 387.341 51.0501Z" fill="#2F2E41"/>
<path d="M390.074 50.1248C373.201 49.1076 371.508 61.8231 371.508 61.8231C371.625 69.1816 383.297 65.5962 386.538 66.6931C390.449 63.8764 397.988 58.5467 403.38 54.7432C399.465 51.9838 394.854 50.3833 390.074 50.1248Z" fill="#2F2E41"/>
<path d="M258.759 197.537H264.154V323.582H258.759V197.537Z" fill="#381E1D"/>
<path d="M264.154 197.537C264.154 197.537 254.982 186.013 247.428 200.958C247.428 200.958 251.025 207.621 252.104 204.38C253.183 201.139 255.768 196.293 258.792 199.166" fill="#381E1D"/>
<path d="M264.965 175.522C264.965 175.522 251.394 188.898 258.077 200.196C258.284 200.545 258.568 200.843 258.907 201.066C259.246 201.289 259.631 201.432 260.034 201.484C260.437 201.535 260.846 201.494 261.23 201.364C261.614 201.233 261.964 201.017 262.252 200.73C264.556 198.449 268.199 192.783 272.674 178.763L264.965 175.522Z" fill="#FDA57D"/>
<path opacity="0.1" d="M274.496 105.074C274.496 105.074 260.467 109.396 263.165 126.322C265.863 143.248 264.784 155.132 264.784 155.132L261.187 176.74L267.662 185.563C267.662 185.563 278.812 174.399 282.589 163.055C286.366 151.711 286.007 106.875 274.496 105.074Z" fill="black"/>
<path d="M274.676 104.894C274.676 104.894 260.647 109.216 263.345 126.142C266.043 143.068 264.964 154.952 264.964 154.952L261.367 176.56L267.841 185.383C267.841 185.383 278.992 174.219 282.769 162.875C286.546 151.531 286.186 106.695 274.676 104.894Z" fill="#DA006D"/>
<path d="M291.126 297.639L293.426 314.881C293.426 314.881 287.522 317.301 285.753 316.753C283.984 316.206 280.883 318.431 280.883 318.431C280.883 318.431 267.691 322.604 265.101 318.854C262.51 315.105 268.386 313.958 273.154 311.132C277.921 308.306 279.937 297.397 279.937 297.397L291.126 297.639Z" fill="black"/>
<path d="M265.953 175.93V239.672L278.183 300.534H291.132L289.154 242.193C289.154 242.193 302.643 195.016 296.708 177.37L265.953 175.93Z" fill="#333333"/>
<path d="M275.929 183.972C275.929 183.972 257.073 186.644 255.735 199.706C255.693 200.11 255.745 200.519 255.885 200.9C256.025 201.281 256.25 201.626 256.543 201.907C256.836 202.188 257.189 202.398 257.576 202.522C257.962 202.646 258.372 202.68 258.773 202.622C261.981 202.16 268.275 199.773 280.201 191.167L275.929 183.972Z" fill="#FDA57D"/>
<path d="M273.597 102.013C273.597 102.013 276.654 107.235 275.395 116.238C275.395 116.238 293.471 114.708 292.931 104.264C292.931 104.264 284.118 102.103 282.05 94.0903L273.597 102.013Z" fill="#FDA57D"/>
<path d="M303.716 301.42L306.016 318.663C306.016 318.663 300.112 321.082 298.343 320.535C296.574 319.987 293.473 322.212 293.473 322.212C293.473 322.212 280.281 326.385 277.691 322.636C275.1 318.886 280.976 317.74 285.744 314.914C290.511 312.087 292.527 301.178 292.527 301.178L303.716 301.42Z" fill="black"/>
<path opacity="0.1" d="M279.532 180.881V244.624L291.762 305.486H304.711L302.733 247.145C302.733 247.145 316.222 199.968 310.287 182.322L279.532 180.881Z" fill="black"/>
<path d="M280.071 180.881V244.624L292.302 305.486H305.251L303.273 247.145C303.273 247.145 316.762 199.968 310.826 182.322L280.071 180.881Z" fill="#333333"/>
<path opacity="0.1" d="M286.546 105.254C286.546 105.254 297.877 97.8717 305.431 119.84C312.985 141.807 309.927 182.322 309.927 182.322C309.927 182.322 277.733 192.766 266.223 178.18V156.393C266.223 156.393 260.108 131.544 268.741 109.936C268.741 109.936 276.294 112.997 286.546 105.254Z" fill="black"/>
<path opacity="0.1" d="M286.906 105.795C286.906 105.795 298.237 98.4119 305.791 120.38C313.344 142.348 310.287 182.862 310.287 182.862C310.287 182.862 278.093 193.306 266.582 178.721V156.933C266.582 156.933 260.467 132.084 269.1 110.476C269.1 110.476 276.654 113.537 286.906 105.795Z" fill="black"/>
<path d="M286.906 105.254C286.906 105.254 298.237 97.8717 305.791 119.84C313.344 141.807 310.287 182.322 310.287 182.322C310.287 182.322 278.093 192.766 266.582 178.18V156.393C266.582 156.393 260.467 131.544 269.1 109.936C269.1 109.936 276.654 112.997 286.906 105.254Z" fill="#DA006D"/>
<path opacity="0.1" d="M298.417 116.238C298.417 116.238 284.388 120.56 287.086 137.486C289.784 154.412 288.704 166.296 288.704 166.296L270.719 184.483L277.194 193.306C277.194 193.306 302.733 185.563 306.51 174.219C310.287 162.875 309.927 118.039 298.417 116.238Z" fill="black"/>
<path opacity="0.1" d="M299.316 116.778C299.316 116.778 285.287 121.1 287.985 138.026C290.683 154.952 289.604 166.836 289.604 166.836L271.618 185.023L278.093 193.846C278.093 193.846 303.632 186.103 307.409 174.759C311.186 163.415 310.826 118.579 299.316 116.778Z" fill="black"/>
<path d="M298.956 116.238C298.956 116.238 284.928 120.56 287.625 137.486C290.323 154.412 289.244 166.296 289.244 166.296L271.259 184.483L277.733 193.306C277.733 193.306 303.273 185.563 307.05 174.219C310.827 162.875 310.467 118.039 298.956 116.238Z" fill="#DA006D"/>
<path opacity="0.1" d="M282.32 94.7206L273.866 102.643C274.005 102.893 274.13 103.149 274.242 103.411C275.469 103.738 276.733 103.904 278.003 103.904C281.232 103.904 284.041 102.262 286.456 100.483C284.768 98.9555 283.32 97.4754 282.32 94.7206Z" fill="black"/>
<path d="M280.161 96.5212C272.116 96.5212 265.593 89.9912 265.593 81.936C265.593 73.8808 272.116 67.3508 280.161 67.3508C288.207 67.3508 294.73 73.8808 294.73 81.936C294.73 89.9912 288.207 96.5212 280.161 96.5212Z" fill="#E0E0E0"/>
<path d="M277.733 103.274C269.688 103.274 263.165 96.7436 263.165 88.6884C263.165 80.6332 269.688 74.1032 277.733 74.1032C285.779 74.1032 292.302 80.6332 292.302 88.6884C292.302 96.7436 285.779 103.274 277.733 103.274Z" fill="#FDA57D"/>
<path d="M292.212 81.936C292.212 81.936 297.667 96.2371 286.126 100.611C285.166 100.119 284.335 99.4068 283.702 98.5318C283.069 97.6568 282.653 96.644 282.487 95.5767C282.32 94.5093 282.409 93.4177 282.746 92.3914C283.083 91.3651 283.658 90.4334 284.424 89.6725L292.212 81.936Z" fill="#E0E0E0"/>
<path d="M265.946 78.7341C265.946 78.7341 260.917 79.9553 269.73 83.0164C271.181 83.5037 272.515 84.2847 273.652 85.3108C274.788 86.337 275.701 87.5862 276.334 88.9809C276.728 89.8314 277.293 90.5918 277.993 91.2152C278.692 91.8386 279.512 92.3118 280.402 92.6055C281.292 92.8992 282.232 93.0071 283.165 92.9227C284.098 92.8383 285.003 92.5632 285.826 92.1146L288.615 90.5791L293.471 79.235L287.715 72.5727L277.823 71.3122L265.946 78.7341Z" fill="#E0E0E0"/>
<path d="M281.6 95.981C280.806 95.981 280.161 94.8524 280.161 93.4601C280.161 92.0679 280.806 90.9392 281.6 90.9392C282.395 90.9392 283.039 92.0679 283.039 93.4601C283.039 94.8524 282.395 95.981 281.6 95.981Z" fill="#FDA57D"/>
<path d="M286.546 105.254C286.546 105.254 276.744 120.65 271.169 120.65C265.593 120.65 275.079 106.214 275.079 106.214L275.305 110.206L286.546 105.254Z" fill="#333333"/>
<path d="M230.083 239.815C262.658 239.815 296.396 236.502 330.94 229.887C423.842 212.1 474.043 177.6 476.791 176.118L485.072 162.33L485.07 162.331V162.331C484.295 162.748 418.324 197.879 327.678 215.164C244.493 231.024 122.777 234.668 15.315 161.946L17.6765 178.552C67.1201 212.012 112.687 228.755 174.399 236.435C192.873 238.71 211.47 239.839 230.083 239.815Z" fill="#006DDA"/>
<path d="M471.627 151.151H482.595V331.514H471.627V151.151Z" fill="white"/>
<path d="M485.574 331.514H467.621C464.856 331.514 462.204 332.614 460.248 334.572C458.293 336.529 457.195 339.184 457.195 341.953V350.94H496V341.953C496 339.184 494.902 336.529 492.946 334.572C490.991 332.614 488.339 331.514 485.574 331.514Z" fill="white"/>
<path opacity="0.1" d="M476.597 168.967C470.597 168.967 465.732 164.097 465.732 158.089C465.732 152.081 470.597 147.211 476.597 147.211C482.598 147.211 487.463 152.081 487.463 158.089C487.463 164.097 482.598 168.967 476.597 168.967Z" fill="black"/>
<path d="M476.597 168.19C470.597 168.19 465.732 163.32 465.732 157.312C465.732 151.304 470.597 146.434 476.597 146.434C482.598 146.434 487.463 151.304 487.463 157.312C487.463 163.32 482.598 168.19 476.597 168.19Z" fill="white"/>
<path opacity="0.1" d="M482.595 327.858C482.595 327.858 475.544 330.6 471.627 327.859L482.595 327.858Z" fill="black"/>
<path d="M13.4054 151.151H24.3735V332.733H13.4054V151.151Z" fill="white"/>
<path d="M28.3791 331.514H10.4261C7.66095 331.514 5.00902 332.614 3.05374 334.572C1.09846 336.529 7.62939e-06 339.184 7.62939e-06 341.953V350.94H38.8052V341.953C38.8052 339.184 37.7068 336.529 35.7515 334.572C33.7962 332.614 31.1443 331.514 28.3791 331.514Z" fill="white"/>
<path opacity="0.1" d="M19.4026 168.967C13.4018 168.967 8.53719 164.097 8.53719 158.089C8.53719 152.081 13.4018 147.211 19.4026 147.211C25.4035 147.211 30.2681 152.081 30.2681 158.089C30.2681 164.097 25.4035 168.967 19.4026 168.967Z" fill="black"/>
<path d="M19.4026 168.19C13.4018 168.19 8.53719 163.32 8.53719 157.312C8.53719 151.304 13.4018 146.434 19.4026 146.434C25.4035 146.434 30.2681 151.304 30.2681 157.312C30.2681 163.32 25.4035 168.19 19.4026 168.19Z" fill="white"/>
<path opacity="0.1" d="M24.8353 300.666C24.8353 300.666 17.8504 302.994 13.9699 300.667L24.8353 300.666Z" fill="black"/>
</svg>
